<?xml version="1.0" encoding="UTF-8" standalone="no"?>
<svg
   xmlns:dc="http://purl.org/dc/elements/1.1/"
   xmlns:svg="http://www.w3.org/2000/svg"
   xmlns="http://www.w3.org/2000/svg"
   xmlns:inkscape="http://www.inkscape.org/namespaces/inkscape"
   viewBox="0 0 487.6 487.6">
    <g
     id="g4024"
     transform="matrix(1,0,0,1.1668581,0,-40.478193)"
     style="opacity:1;fill:#2d6862;fill-opacity:1;stroke:none"><path
       d="m 460.3,216.55 h -11.6 v -69.7 c 0,-28.5 -23.2,-51.6 -51.6,-51.6 h -10.7 l 0.1,-25.9 c 0,-19.2 -15.6,-34.8 -34.8,-34.8 H 42.3 c -23.1,0 -42,18.6 -42.3,41.7 0,0.2 0,0.4 0,0.6 v 341.4 c 0,19.2 15.6,34.8 34.8,34.8 h 362.4 c 28.5,0 51.6,-23.2 51.6,-51.6 v -69.8 h 11.6 c 15,0 27.2,-12.2 27.2,-27.2 v -60.7 c -0.1,-15 -12.3,-27.2 -27.3,-27.2 z m -418,-158 h 309.4 c 5.9,0 10.8,4.8 10.8,10.7 l -0.1,26 H 42.3 c -10.1,0 -18.3,-8.2 -18.3,-18.3 0,-10.1 8.2,-18.4 18.3,-18.4 z m 382.4,342.8 c 0,15.2 -12.4,27.6 -27.6,27.6 H 34.7 c -5.9,0 -10.8,-4.8 -10.8,-10.8 v -303.1 c 5.6,2.7 11.8,4.2 18.4,4.2 h 354.8 c 15.2,0 27.6,12.4 27.6,27.6 v 69.7 h -81.9 c -15,0 -27.2,12.2 -27.2,27.2 v 60.7 c 0,15 12.2,27.2 27.2,27.2 h 81.9 z m 38.8,-96.9 c 0,1.8 -1.4,3.2 -3.2,3.2 H 342.9 c -1.8,0 -3.2,-1.4 -3.2,-3.2 v -60.7 c 0,-1.7 1.4,-3.2 3.2,-3.2 h 117.4 c 1.7,0 3.2,1.4 3.2,3.2 z"
       id="path4022"
       inkscape:connector-curvature="0"
       style="fill:#2d6862;fill-opacity:1;stroke:none" /></g>
     <g
     transform="matrix(1.3751952,0,0,1.5074362,-146.46272,-243.7598)"
     id="g3940"
     style="fill:#2d6862;fill-opacity:1;stroke:none"
     inkscape:export-xdpi="6"
     inkscape:export-ydpi="6"><g
       id="g3938"
       style="fill:#2d6862;fill-opacity:1;stroke:none"><path
         inkscape:connector-curvature="0"
         d="m 300,317 c 0,-24.813 -20.187,-45 -45,-45 h -15 v -15 c 0,-8.284 -6.716,-15 -15,-15 -8.284,0 -15,6.716 -15,15 v 15 h -45 c -8.284,0 -15,6.716 -15,15 0,8.284 6.716,15 15,15 h 15 v 90 h -15 c -8.284,0 -15,6.716 -15,15 0,8.284 6.716,15 15,15 h 45 v 15 c 0,8.284 6.716,15 15,15 8.284,0 15,-6.716 15,-15 v -15 h 15 c 24.813,0 45,-20.187 45,-45 0,-11.517 -4.354,-22.032 -11.495,-30 C 295.646,339.032 300,328.517 300,317 Z m -45,75 h -45 v -30 h 45 c 8.271,0 15,6.729 15,15 0,8.271 -6.729,15 -15,15 z m 0,-60 h -45 v -30 h 45 c 8.271,0 15,6.729 15,15 0,8.271 -6.729,15 -15,15 z"
         id="path3936"
         style="fill:#2d6862;fill-opacity:1;stroke:none;stroke-opacity:0" /></g></g></svg>